<svg viewBox="0 0 244 32" xmlns="http://www.w3.org/2000/svg">
    <path class="outside" d="m5.98461 31.9997h-4.98781v-20.00684h4.98781zm69.03068 0h4.98781v-20.00684h-4.98781z"/>
    <path class="middle" d="m13.98592 32h-4.97681v-16.00135h4.97681zm53.02808 0h4.97681v-16.00135h-4.97681z"/>
    <path class="inside" d="m22.00363 31.9997h-5.00711v-10.99479h5.00711zm36.99264 0h5.00711v-10.99479h-5.00711z"/>
    <path d="m24.99993 31.9927v-13.99681h-7v-4.99889h7v-8.99791h-4v4.99891h-20.99993v-8.998h39v31.9927zm31 0v-13.99681h7v-4.99889h-6.99993v-8.99791h4.0001v4.99891h20.9999v-8.998h-39v31.9927z"/>
    <path d="m103.01183 4.50567h17.89172v5.89256h-10.76022v2.86414h9.235v5.47286h-9.235v8.7591h-7.1315zm19.07172 0h19.15232v5.89256h-12.02281v2.86414h10.91881v5.47286h-10.91881v2.86654h12.38081v5.89256h-19.51032zm28.98994 0h6.9685l8.42861 22.98866h-7.3905l-.972-3.28525h-7.35761l-1.035 3.28525h-7.16549zm5.60751 14.77793-2.0722-7.08218h-.066l-2.2362 7.08218zm10.80171-14.77793h13.581c4.05121 0 7.55041 2.22339 7.55041 6.5677 0 2.38316-1.102 4.89459-3.4682 5.76179 1.9462.74323 3.1453 2.86765 3.4042 5.73119.094 1.127.129 3.865.7761 4.928h-7.12861a16.37186 16.37186 0 0 1 -.5839-3.54409c-.1951-2.188-.389-4.47448-3.2073-4.47448h-3.79321v8.01857h-7.1305zm7.1305 10.04721h3.72621c1.331 0 3.1453-.22755 3.1453-2.28788 0-1.44947-.8121-2.284-3.5312-2.284h-3.34031zm15.765 6.5651h6.74151v6.37635h-6.74151zm7.75361-16.61231h17.89323v5.89256h-10.7618v2.86414h9.23575v5.47286h-9.23571v8.7591h-7.13141zm18.90423 0h10.14481l3.3032 13.52072h.066l3.30521-13.52072h10.14473v22.98866h-6.74241v-14.744h-.0641l-4.0183 14.744h-5.31431l-4.0203-14.744h-.065v14.744h-6.7395z"/>
</svg>
